<?xml version="1.0" standalone="no"?>
<!DOCTYPE svg PUBLIC "-//W3C//DTD SVG 20010904//EN"
 "http://www.w3.org/TR/2001/REC-SVG-20010904/DTD/svg10.dtd">
<svg version="1.0" xmlns="http://www.w3.org/2000/svg"
 width="593.000000pt" height="593.000000pt" viewBox="0 0 593.000000 593.000000"
 preserveAspectRatio="xMidYMid meet">
<metadata>
Created by potrace 1.11, written by Peter Selinger 2001-2013
</metadata>
<g transform="translate(0.000000,593.000000) scale(0.100000,-0.100000)"
fill="#000000" stroke="none">
<path d="M3599 5848 c-1 -45 -5 -110 -8 -118 -1 -3 -15 18 -31 45 -24 39 -29
44 -24 21 5 -22 4 -27 -6 -21 -8 5 -11 2 -7 -11 4 -11 9 -32 13 -49 l7 -29
-50 37 c-28 20 -53 34 -56 31 -3 -3 -18 2 -34 12 -28 18 -28 18 -10 -2 24 -29
21 -35 -10 -23 -36 14 -140 13 -194 -1 -143 -39 -218 -187 -219 -436 -1 -125
4 -179 31 -319 24 -120 22 -113 49 -198 12 -38 20 -70 18 -72 -9 -8 -298 -15
-298 -7 0 12 -129 232 -136 232 -2 0 -2 -12 1 -27 3 -16 7 -48 11 -73 3 -25 7
-52 9 -60 2 -8 7 -36 10 -61 l6 -45 -53 -11 c-87 -18 -111 -24 -120 -29 -4 -3
-16 -7 -25 -9 -10 -2 -45 -13 -77 -24 -33 -12 -60 -20 -61 -19 -3 4 -206 293
-225 321 -64 94 -120 168 -120 161 0 -5 12 -52 26 -104 14 -52 28 -104 30
-115 2 -11 25 -94 50 -184 45 -159 46 -165 28 -178 -47 -35 -51 -32 -300 167
-131 105 -250 200 -262 211 -36 31 -36 17 -1 -42 18 -30 64 -110 104 -179 39
-69 99 -169 133 -222 l61 -97 -57 -48 c-31 -26 -62 -52 -69 -58 -6 -5 -45 -43
-86 -83 l-74 -73 -139 66 c-198 95 -239 113 -242 110 -2 -2 29 -39 70 -82 154
-162 196 -208 193 -211 -3 -3 -182 62 -310 113 -58 23 -303 115 -470 177 -44
16 -73 23 -65 15 44 -40 415 -339 543 -436 81 -62 147 -117 147 -124 0 -6 -17
-45 -39 -87 -21 -41 -49 -103 -62 -137 l-24 -63 -50 -1 c-27 0 -156 -1 -287
-2 -130 -1 -234 -5 -232 -9 2 -4 30 -16 62 -28 31 -11 71 -27 89 -35 17 -8 34
-15 38 -15 4 0 21 -6 38 -14 29 -13 61 -24 222 -81 28 -10 51 -19 53 -20 1 -1
-2 -22 -7 -46 -5 -24 -13 -60 -16 -79 -3 -19 -8 -42 -10 -50 -2 -8 -7 -51 -11
-95 -9 -111 -10 -114 -15 -119 -2 -2 -24 -7 -49 -10 -25 -3 -58 -8 -75 -11
-33 -5 -74 -11 -185 -26 -41 -6 -86 -12 -100 -14 -103 -16 -385 -57 -430 -62
-92 -10 -98 -18 -23 -32 57 -11 219 -43 288 -57 10 -2 37 -6 60 -9 22 -4 56
-10 75 -15 19 -4 69 -14 110 -20 90 -14 105 -16 150 -24 19 -3 51 -8 70 -10
91 -13 121 -19 124 -25 2 -3 7 -33 11 -66 3 -33 11 -80 16 -105 23 -98 36 -84
-128 -136 -204 -64 -319 -103 -313 -104 3 -1 118 -4 255 -7 138 -3 251 -6 251
-6 1 -1 4 -11 8 -23 6 -18 -19 -38 -196 -154 -217 -143 -234 -156 -203 -146
11 3 36 8 55 11 19 3 43 8 52 11 9 3 25 7 35 9 10 2 38 8 63 14 25 5 59 12 75
15 17 3 67 16 113 30 l83 24 25 -50 c27 -54 92 -162 131 -220 l25 -37 -24 -24
c-123 -126 -189 -199 -186 -203 3 -2 25 6 49 19 57 29 226 107 233 107 17 0
-5 -33 -121 -178 -71 -88 -141 -177 -158 -198 -16 -20 -73 -92 -126 -158 -53
-67 -95 -122 -94 -124 5 -5 359 226 520 340 22 15 69 48 104 72 l65 45 35 -30
c20 -16 68 -55 107 -86 l70 -55 -44 -147 c-24 -80 -45 -150 -46 -156 -1 -5
-10 -34 -19 -64 -9 -30 -16 -56 -14 -57 2 -2 246 298 264 325 1 2 57 -24 125
-57 68 -33 133 -63 145 -66 13 -4 20 -13 18 -24 -1 -9 -6 -39 -9 -67 -4 -27
-14 -93 -22 -145 -8 -52 -17 -106 -19 -120 -2 -14 -7 -45 -10 -70 -3 -25 -8
-52 -10 -60 -2 -8 -6 -35 -9 -60 -3 -25 -12 -88 -21 -140 -8 -52 -17 -105 -19
-118 -5 -33 5 -19 59 83 27 50 51 95 55 100 15 22 108 198 188 359 l84 168 31
-6 c18 -4 54 -10 81 -13 l48 -6 -6 -46 c-3 -25 -9 -59 -12 -76 -5 -23 4 -15
41 41 l47 70 52 -7 c61 -8 336 -4 423 6 l62 7 76 -151 c66 -133 93 -180 80
-138 -3 12 -9 75 -21 239 -6 83 -9 79 61 92 29 6 35 0 215 -244 101 -138 185
-250 186 -250 1 0 -13 55 -31 123 -30 114 -47 173 -109 369 l-24 78 41 18 42
19 243 -184 c133 -101 242 -181 242 -179 0 9 -166 281 -223 366 -32 47 -57 89
-57 95 0 5 40 36 89 68 49 32 94 64 101 71 9 12 31 5 128 -39 64 -29 142 -64
172 -77 30 -14 64 -28 75 -32 11 -4 -36 50 -105 120 -69 70 -118 124 -110 122
8 -3 85 -30 170 -61 85 -30 227 -81 315 -112 88 -31 177 -62 198 -70 20 -8 42
-15 48 -15 13 0 -300 243 -464 360 -65 46 -117 87 -117 92 0 5 21 34 46 65 25
31 66 86 90 123 l44 66 207 3 c114 1 209 3 210 5 1 1 -70 28 -160 61 -89 32
-165 61 -170 65 -4 3 7 38 24 76 18 38 49 116 69 174 42 117 34 111 160 125
30 3 62 8 70 10 8 2 40 7 70 10 30 3 66 8 80 9 14 2 50 7 80 10 30 4 62 9 70
11 8 2 38 7 65 10 77 9 125 15 154 19 14 3 46 8 71 11 25 4 46 8 48 9 1 2 -53
13 -120 24 -68 12 -134 24 -148 27 -41 8 -203 37 -225 40 -11 2 -36 5 -55 8
-19 3 -71 11 -115 17 -44 7 -87 13 -95 15 -10 1 -14 12 -13 31 9 143 16 210
22 216 3 3 128 48 276 98 149 50 308 104 355 120 47 16 76 30 65 31 -69 4
-250 9 -443 10 -210 1 -222 2 -199 18 25 16 60 41 258 179 52 37 137 96 187
131 51 35 90 66 88 68 -2 2 -52 -8 -112 -23 -60 -14 -116 -27 -124 -29 -32 -7
-190 -48 -289 -76 -123 -34 -121 -34 -121 -11 0 25 -53 196 -89 285 l-31 78
107 121 c60 67 118 132 131 145 13 12 20 23 17 23 -3 0 -77 -36 -164 -80 -118
-59 -161 -76 -164 -66 -5 12 34 73 81 131 4 6 82 109 172 230 91 121 167 222
170 225 14 14 150 200 146 200 -6 0 -362 -244 -469 -321 -48 -35 -129 -95
-179 -132 l-92 -68 -45 53 c-24 29 -83 92 -131 139 l-86 86 33 119 c19 65 36
127 38 137 3 9 7 25 10 35 2 9 11 42 19 72 18 64 32 79 -122 -124 -65 -85
-108 -133 -115 -129 -7 4 -44 28 -83 54 -39 26 -115 71 -170 100 -54 28 -102
55 -106 58 -4 4 2 65 12 136 25 162 28 178 35 240 3 28 10 73 15 100 5 28 12
73 15 100 8 62 14 112 20 145 11 64 16 114 11 109 -15 -14 -349 -679 -360
-715 l-6 -21 -95 22 c-53 13 -98 23 -100 24 -3 0 -9 1 -13 1 -5 0 -4 38 3 85
6 46 9 83 7 81 -5 -5 -47 -81 -69 -123 -12 -25 -21 -31 -37 -28 -12 3 -50 7
-85 9 -62 3 -64 4 -78 37 -35 82 -76 260 -89 387 -26 275 21 454 133 504 58
26 122 25 178 -2 53 -26 50 -40 -8 -41 l-42 -1 45 -15 c25 -8 52 -16 59 -17
35 -6 16 -23 -51 -46 l-73 -25 94 -3 94 -3 -49 -50 -49 -51 43 21 43 22 -12
-23 c-7 -13 -22 -36 -34 -53 -76 -103 -72 -104 51 -8 45 35 84 63 86 63 2 0 1
-31 -2 -70 -3 -38 -4 -70 -3 -70 1 0 11 17 22 38 19 34 20 35 22 12 1 -14 1
-29 0 -33 -1 -5 3 -6 9 -2 5 3 10 16 10 28 0 18 2 19 10 7 5 -8 10 -25 10 -38
0 -40 17 -15 23 33 5 46 16 69 24 50 10 -26 84 -135 92 -135 5 0 3 20 -5 45
-15 50 -11 55 17 23 16 -19 15 -13 -6 35 -14 32 -25 60 -25 63 0 3 13 -4 29
-15 42 -30 45 -26 15 20 -14 22 -23 43 -21 45 2 3 17 0 33 -6 l28 -11 -19 21
-20 22 45 -7 c39 -6 42 -5 31 9 -8 9 -20 16 -27 16 -20 0 -17 18 4 23 11 3 7
7 -15 12 -41 9 -42 24 -3 32 17 3 33 10 36 14 3 5 9 7 14 4 5 -3 12 0 16 6 5
8 3 9 -6 4 -9 -5 -11 -4 -6 3 4 7 15 13 24 14 9 1 -16 4 -56 7 l-73 6 60 65
c33 35 58 66 57 68 -2 2 -31 -10 -65 -27 -70 -36 -85 -39 -72 -13 6 9 16 33
24 52 8 19 19 47 25 62 9 22 9 26 -3 21 -8 -3 -15 -8 -15 -12 0 -3 -20 -28
-45 -56 -48 -52 -49 -52 -45 25 2 40 -6 36 -31 -18 -11 -22 -18 -30 -18 -19
-1 10 -5 16 -10 13 -5 -3 -17 23 -26 59 -10 36 -22 65 -26 65 -5 0 -9 -19 -10
-42z"/>
</g>
</svg>
